<svg width="237" height="31" viewBox="0 0 237 31" fill="#3A3A3A" xmlns="http://www.w3.org/2000/svg">
<path d="M45.2113 5.10706C39.9686 5.10706 36.6599 8.53226 36.6599 14.311C36.6599 20.1595 39.9686 23.4915 45.2113 23.4915C50.4308 23.4915 53.7395 20.1828 53.7395 14.311C53.7395 8.43916 50.4308 5.10706 45.2113 5.10706ZM45.1414 22.6061C41.1103 22.6061 39.8521 18.4585 39.8521 14.1245C39.8521 10.0469 41.0638 5.99236 45.0948 5.99236C49.1958 5.99236 50.4774 10.0235 50.4774 14.4973C50.4774 18.6914 49.2191 22.6061 45.1414 22.6061Z" />
<path d="M76.9471 22.6526C75.6888 22.6526 75.246 22.2564 75.246 20.8584V12.5399C75.246 10.536 74.1975 9.04468 72.2635 9.04468C70.5859 9.04468 69.6771 10.0467 68.1626 11.2815L67.3703 11.9341C67.1606 10.2563 66.1587 9.04468 64.4344 9.04468C62.7568 9.04468 61.8247 10.0233 60.3334 11.2815L59.6344 11.8641C59.6576 11.3747 59.6576 10.7456 59.6576 10.4661C59.6576 9.65048 59.2848 9.32428 58.7722 9.32428C57.9566 9.32428 54.6013 9.86028 54.6013 10.3263C54.6013 10.4428 54.6712 10.5594 54.9042 10.5594H55.5567C57.048 10.5594 57.0712 12.8429 57.0712 15.7555V16.874C57.0712 21.4409 57.0712 22.6292 55.1372 22.6526C54.8576 22.6526 54.7178 22.8157 54.7178 22.9788C54.7178 23.1186 54.8344 23.2585 55.0673 23.2585H61.4751C61.708 23.2585 61.8245 23.1187 61.8245 22.9788C61.8245 22.8157 61.6848 22.6526 61.3819 22.6526C59.9372 22.6526 59.8906 22.14 59.7042 20.7418C59.611 20.0895 59.5644 18.435 59.5644 16.874V15.872C59.5644 14.7535 59.5644 13.6118 59.5878 12.8429C61.2422 11.538 62.0111 10.769 62.9897 10.769C64.0616 10.769 64.7373 11.4448 64.7373 16.338C64.7373 21.8138 64.3179 22.6526 62.9431 22.6526C62.6635 22.6526 62.5237 22.8157 62.5237 22.9788C62.5237 23.1186 62.6402 23.2585 62.8732 23.2585H69.1878C69.4207 23.2585 69.5372 23.1187 69.5372 22.9788C69.5372 22.8157 69.3975 22.6526 69.1178 22.6526C67.8596 22.6526 67.4168 22.2564 67.4168 20.8584V12.8428C69.0712 11.5379 69.8401 10.7689 70.8187 10.7689C71.8906 10.7689 72.5663 11.4447 72.5663 16.3379C72.5663 21.8137 72.1469 22.6525 70.7721 22.6525C70.4925 22.6525 70.3527 22.8156 70.3527 22.9787C70.3527 23.1185 70.4693 23.2584 70.7022 23.2584H77.0168C77.2497 23.2584 77.3663 23.1186 77.3663 22.9787C77.3663 22.8156 77.2267 22.6526 76.9471 22.6526Z" />
<path d="M81.5193 7.31621C82.3963 7.31621 83.1198 6.59271 83.1198 5.73761C83.1198 4.86071 82.3963 4.13721 81.5193 4.13721C80.6644 4.13721 79.9409 4.86071 79.9409 5.73761C79.9409 6.59281 80.6644 7.31621 81.5193 7.31621Z" />
<path d="M84.7058 22.6759C83.261 22.6759 83.2145 22.0934 83.0281 20.6954C82.9349 20.0429 82.8883 18.4351 82.8883 16.8741V15.8721C82.8883 12.9594 82.9815 11.2817 82.9815 10.4663C82.9815 9.65086 82.6087 9.32446 82.0961 9.32446C81.4436 9.32446 79.3233 9.72066 78.3679 9.97696C78.1116 10.047 78.0417 10.1867 78.0417 10.3033C78.0417 10.4198 78.1349 10.5362 78.3679 10.5362H78.9738C80.3252 10.5362 80.3952 12.3538 80.3952 15.2663V16.8742C80.3952 18.4352 80.302 20.0431 80.2554 20.6955C80.1389 22.0703 79.8593 22.676 78.4613 22.676C78.1817 22.676 78.0418 22.8158 78.0418 22.9789C78.0418 23.1187 78.1583 23.2586 78.3913 23.2586H84.799C85.0321 23.2586 85.1485 23.1188 85.1485 22.9789C85.1485 22.8158 85.0086 22.6759 84.7058 22.6759Z" />
<path d="M99.1054 20.8818C98.7792 20.8818 98.756 22.0002 97.8938 22.0002C97.0316 22.0002 96.9618 21.1846 96.9618 19.4138V5.31665C96.9618 4.50125 96.589 4.17505 96.0764 4.17505C95.4239 4.17505 93.2802 4.85075 92.3016 5.10705C92.0453 5.17695 91.9288 5.29335 91.9288 5.40985C91.9288 5.52645 92.0686 5.61965 92.3016 5.61965H92.8841C94.2356 5.61965 94.3987 6.22555 94.3987 8.64865V10.0468C93.4667 9.27795 92.3948 9.04485 91.3463 9.04485C87.6879 9.04485 85.3579 12.0273 85.3579 17.1303C85.3579 20.6953 87.0356 23.4914 90.5308 23.4914C92.0687 23.4914 93.3735 22.9322 94.4686 21.8837C94.7715 22.6293 95.4706 23.4914 96.8919 23.4914C98.593 23.4914 99.3153 22.3497 99.3153 21.2544C99.3153 20.9981 99.2686 20.8818 99.1054 20.8818ZM94.4453 17.1303C94.4453 18.6681 94.3753 20.6255 94.3288 21.2778C93.3035 21.8603 92.5112 22.1166 91.7657 22.1166C89.2958 22.1166 88.154 19.6002 88.154 16.5244C88.154 12.7496 89.5288 10 91.8356 10C93.2803 10 94.4453 11.2351 94.4453 13.169V17.1303Z" />
<path d="M112.923 9.62744C112.923 9.48744 112.76 9.32444 112.411 9.32444H107.378C107.052 9.32444 106.935 9.46444 106.935 9.58074C106.935 9.72054 107.098 9.88374 107.331 9.88374C108.519 9.88374 109.055 10.2564 109.055 10.9322C109.055 11.0953 109.009 11.2816 108.962 11.4914L106.516 19.9496L102.951 11.1419C102.881 10.9788 102.834 10.8157 102.834 10.6759C102.834 10.14 103.323 9.81374 104.279 9.81374C104.558 9.81374 104.698 9.67394 104.698 9.53414C104.698 9.41754 104.605 9.32434 104.465 9.32434H98.6632C98.3835 9.32434 98.2437 9.51084 98.2437 9.67384C98.2437 9.83684 98.3369 9.95354 98.57 9.95354C99.5486 9.95354 99.7816 10.536 100.97 13.2622L105.281 23.1652L104.512 24.9826C104.162 25.8215 103.836 26.2409 102.857 26.2409C101.972 26.2409 101.506 25.6583 101.343 25.3787C100.923 25.5184 100.644 25.8447 100.644 26.4972C100.644 27.3126 101.226 28.268 102.694 28.268C104.162 28.268 104.861 27.2894 105.304 26.031L109.917 12.9126C110.663 10.7689 111.502 9.88364 112.527 9.88364C112.783 9.88364 112.923 9.76714 112.923 9.62744Z" />
<path d="M124.201 20.8818C123.875 20.8818 123.851 22.0002 122.989 22.0002C122.057 22.0002 122.057 21.1846 122.057 19.4138C122.057 15.9419 122.197 13.7516 122.197 12.9128C122.197 10.0469 120.403 9.04492 117.653 9.04492C114.717 9.04492 112.807 10.1401 112.807 11.7944C112.807 12.7498 113.389 13.4255 114.508 13.4255C114.741 13.4255 114.997 13.4023 115.3 13.3323C115.23 13.0527 115.183 12.68 115.183 12.2838C115.183 11.1421 115.58 9.74392 117.071 9.74392C119.005 9.74392 119.587 11.6547 119.587 14.5673V16.1052C119.238 16.0818 118.888 16.0585 118.515 16.0585C115.696 16.0585 112.294 16.8274 112.294 20.3226C112.294 22.3266 113.832 23.4916 115.906 23.4916C117.234 23.4916 118.609 22.9091 119.564 21.8839C119.867 22.6295 120.566 23.4916 121.987 23.4916C123.688 23.4916 124.41 22.3499 124.41 21.2546C124.41 20.9983 124.364 20.8818 124.201 20.8818ZM119.471 21.2545C118.725 21.7905 118.096 21.9536 117.281 21.9536C115.906 21.9536 115.02 21.2545 115.02 19.8566C115.02 17.7129 116.721 16.7808 119.075 16.7808H119.587C119.587 18.0156 119.587 20.4855 119.471 21.2545Z" />
<path d="M133.148 9.0448C131.89 9.0448 130.445 9.7905 129.7 13.006C129.7 11.0487 129.537 9.3244 128.651 9.3244C128.278 9.3244 125.552 9.7206 124.597 9.9769C124.341 10.0469 124.247 10.1866 124.247 10.3032C124.247 10.4429 124.364 10.5595 124.597 10.5595H125.156C127.09 10.5595 127.23 12.9594 127.23 15.8721V16.8741C127.23 18.4351 127.137 20.043 127.09 20.6954C126.974 22.0702 126.508 22.6527 125.296 22.6527C125.016 22.6527 124.876 22.8158 124.876 22.9789C124.876 23.1187 124.993 23.2586 125.226 23.2586H132.496C132.729 23.2586 132.845 23.1188 132.845 22.9789C132.845 22.8158 132.706 22.6527 132.426 22.6527C130.515 22.6527 129.956 22.0935 129.77 20.6954C129.7 20.0429 129.63 19.0409 129.63 16.2215C129.63 13.472 130.725 11.1653 132.03 11.1653C133.032 11.1653 133.055 12.237 133.055 12.6564C133.754 12.6564 135.152 12.3536 135.152 10.9322C135.152 9.6274 134.337 9.0448 133.148 9.0448Z" />
<path d="M159.082 5.43323H153.327C153.117 5.43323 153.024 5.59633 153.024 5.73603C153.024 5.89923 153.14 6.06233 153.396 6.06233C155.051 6.06233 155.494 6.59823 155.587 7.83323C155.633 8.39233 155.727 9.88373 155.727 12.703V18.4119L145.195 5.57293C145.125 5.47983 145.031 5.43323 144.845 5.43323H140.977C140.744 5.43323 140.651 5.57293 140.651 5.73603C140.651 5.89923 140.767 6.06233 140.954 6.06233C141.769 6.06233 142.235 6.36523 142.701 6.99433L143.377 7.92643V16.2214C143.377 19.0876 143.307 20.3224 143.261 20.8818C143.144 22.0934 142.655 22.6526 140.977 22.6526C140.721 22.6526 140.581 22.8157 140.581 22.9788C140.581 23.1186 140.697 23.2585 140.884 23.2585H147.129C147.338 23.2585 147.455 23.1187 147.455 22.9788C147.455 22.8157 147.315 22.6526 147.058 22.6526C145.381 22.6526 144.752 21.9535 144.589 20.7186C144.519 20.1129 144.495 18.9244 144.495 16.1051V9.25453L156.053 23.3982C156.169 23.538 156.286 23.608 156.425 23.608C156.635 23.608 156.822 23.4448 156.822 23.1419V12.6564C156.822 9.88373 156.892 8.39233 156.985 7.83323C157.171 6.59813 157.474 6.06233 158.989 6.06233C159.245 6.06233 159.385 5.87603 159.385 5.71293C159.385 5.57293 159.268 5.43323 159.082 5.43323Z" />
<path d="M170.243 13.5885C170.243 10.0933 167.703 9.0448 165.769 9.0448C161.481 9.0448 159.361 12.3769 159.361 16.6876C159.361 21.2545 161.808 23.4915 165.28 23.4915C168.845 23.4915 170.243 20.9517 170.243 19.5071C170.243 19.344 170.196 19.2274 170.056 19.2274C169.963 19.2274 169.87 19.274 169.8 19.4139C168.938 21.2081 167.843 21.6974 166.258 21.6974C163.695 21.6974 162.087 19.1576 162.087 14.7305H168.821C169.823 14.7305 170.243 14.4274 170.243 13.5885ZM166.421 13.8216L162.134 14.1245C162.413 11.841 163.346 9.7905 165.303 9.7905C166.654 9.7905 167.33 10.8158 167.33 12.9594C167.33 13.472 167.19 13.775 166.421 13.8216Z" />
<path d="M198.716 9.60403C198.716 9.46433 198.553 9.32433 198.204 9.32433H193.707C193.381 9.32433 193.241 9.44093 193.241 9.58063C193.241 9.72043 193.404 9.86033 193.637 9.86033C194.755 9.86033 195.175 10.2098 195.175 10.8622C195.175 11.0487 195.151 11.2584 195.082 11.4914L192.682 19.9729L189.955 11.1185C189.909 10.9788 189.885 10.8389 189.885 10.7225C189.885 10.1865 190.351 9.95363 191.353 9.83703C191.61 9.81383 191.726 9.69733 191.726 9.58073C191.726 9.44103 191.586 9.32443 191.377 9.32443H185.691C185.505 9.32443 185.388 9.51093 185.388 9.67393C185.388 9.81373 185.458 9.95363 185.668 9.95363C186.623 9.95363 186.716 10.2564 187.369 12.0506L187.858 13.3789L185.458 19.9264L182.662 11.1185C182.616 10.9788 182.592 10.8389 182.592 10.7225C182.592 10.1865 183.058 9.95363 184.06 9.83703C184.316 9.81383 184.433 9.69733 184.433 9.58073C184.433 9.44103 184.293 9.32443 184.084 9.32443C184.084 9.32443 176.254 9.46443 175.276 9.46443V6.94783C175.276 6.62163 175.159 6.48193 174.973 6.48193C174.833 6.48193 174.693 6.59833 174.484 6.78473L171.524 9.69743C171.338 9.88393 171.268 10.0002 171.268 10.1168C171.268 10.2565 171.361 10.3265 171.548 10.3265H172.689C172.689 12.5633 172.526 17.8994 172.526 20.2761C172.526 22.3731 173.551 23.5149 175.835 23.5149C177.443 23.5149 178.911 22.5129 178.911 20.4158C178.911 20.1362 178.771 19.973 178.631 19.973C178.514 19.973 178.375 20.113 178.328 20.3693C178.165 21.3712 177.513 22.0935 176.581 22.0935C175.718 22.0935 175.276 21.5576 175.276 20.1362V10.3032C175.276 10.3032 176.284 10.2535 177.544 10.2301C178.73 10.208 179.556 10.7199 179.928 11.7119C179.968 11.8185 180.009 11.9313 180.052 12.0507L184.107 23.0488C184.247 23.4217 184.456 23.5614 184.62 23.5614C184.829 23.5614 185.016 23.3983 185.109 23.142L188.348 14.7769L191.283 23.0488C191.4 23.4217 191.586 23.5614 191.773 23.5614C191.983 23.5614 192.169 23.3983 192.262 23.142L196.13 12.8664C196.759 11.1887 197.062 9.86053 198.321 9.86053C198.577 9.86053 198.716 9.74373 198.716 9.60403Z" />
<path d="M204.588 9.04478C200.767 9.04478 197.971 11.4681 197.971 16.8273C197.971 21.0914 200.114 23.4914 203.796 23.4914C207.617 23.4914 210.437 21.2079 210.437 15.8487C210.437 11.5846 208.27 9.04478 204.588 9.04478ZM204.425 22.6759C201.885 22.6759 200.814 19.8098 200.814 15.9885C200.814 12.47 201.699 9.83698 204.099 9.83698C206.592 9.83698 207.571 12.8429 207.571 16.6642C207.571 20.1827 206.848 22.6759 204.425 22.6759Z" />
<path d="M219.827 9.0448C218.569 9.0448 217.124 9.7905 216.378 13.006C216.378 11.0487 216.215 9.3244 215.33 9.3244C214.957 9.3244 212.231 9.7206 211.275 9.9769C211.019 10.0469 210.926 10.1866 210.926 10.3032C210.926 10.4429 211.042 10.5595 211.275 10.5595H211.835C213.769 10.5595 213.908 12.9594 213.908 15.8721V16.8741C213.908 18.4351 213.815 20.043 213.769 20.6954C213.652 22.0702 213.186 22.6527 211.974 22.6527C211.695 22.6527 211.555 22.8158 211.555 22.9789C211.555 23.1187 211.672 23.2586 211.904 23.2586H219.174C219.407 23.2586 219.524 23.1188 219.524 22.9789C219.524 22.8158 219.384 22.6527 219.104 22.6527C217.194 22.6527 216.634 22.0935 216.448 20.6954C216.378 20.0429 216.308 19.0409 216.308 16.2215C216.308 13.472 217.403 11.1653 218.708 11.1653C219.71 11.1653 219.734 12.237 219.734 12.6564C220.433 12.6564 221.831 12.3536 221.831 10.9322C221.831 9.6274 221.015 9.0448 219.827 9.0448Z" />
<path d="M235.205 22.4196C234.25 21.8604 232.409 19.6934 229.31 14.8002L233.085 11.1186C233.97 10.2564 234.436 9.88376 235.811 9.88376C236.09 9.88376 236.207 9.72056 236.207 9.58076C236.207 9.44106 236.114 9.32446 235.834 9.32446H230.219C229.939 9.32446 229.799 9.44106 229.799 9.58076C229.799 9.72056 229.939 9.88376 230.125 9.88376C231.291 9.88376 231.85 10.3264 231.85 10.7458C231.85 10.8856 231.78 11.0487 231.663 11.1653L227.609 15.5225C227.399 15.7322 227.306 15.8953 227.306 16.0584C227.306 16.175 227.353 16.3147 227.446 16.4778C231.267 22.8624 232.036 23.6312 233.504 23.6312C235.065 23.6312 236.743 23.2585 236.743 22.9322C236.743 22.6059 236.161 22.9554 235.205 22.4196Z" />
<path d="M228.541 22.6526C227.166 22.6526 227.027 22.2564 226.84 20.8584C226.747 20.2059 226.723 18.435 226.723 16.874V5.31665C226.723 4.50125 226.351 4.17505 225.838 4.17505C225.186 4.17505 223.042 4.85075 222.063 5.10705C221.807 5.17695 221.69 5.29335 221.69 5.40985C221.69 5.52645 221.83 5.61965 222.063 5.61965H222.646C223.997 5.61965 224.16 6.22555 224.16 8.64865V16.874C224.16 18.435 224.067 20.206 224.021 20.8584C223.904 22.2332 223.531 22.6526 222.226 22.6526C221.947 22.6526 221.807 22.8157 221.807 22.9788C221.807 23.1186 221.924 23.2585 222.157 23.2585H228.611C228.844 23.2585 228.96 23.1187 228.96 22.9788C228.96 22.8157 228.821 22.6526 228.541 22.6526Z" />
<path d="M27.365 23.9116H27.3573C26.6885 23.8827 25.9427 24.2348 25.3302 23.9361C24.8446 23.6868 24.5514 23.3264 24.1176 22.9067C23.6868 22.4574 23.1908 22.0355 22.8455 21.5427C22.5354 21.1053 22.5809 20.6732 22.6896 20.128C22.7551 19.7719 22.8049 19.4053 22.7829 19.0406C22.7281 17.7868 21.9203 16.6158 20.757 16.1371C19.8504 15.7431 19.0366 15.8671 18.1354 16.0332C17.5619 16.1359 17.1232 15.8758 16.7206 15.4908C16.2755 15.0696 15.811 14.587 15.3735 14.1535C15.0724 13.8431 14.7503 13.5278 14.5961 13.1239C14.3813 12.5174 14.651 11.8213 14.5843 11.1735C14.5168 9.89844 13.6737 8.72474 12.4826 8.26934C11.9287 8.04444 11.3036 7.99524 10.7162 8.06004C9.9072 8.15784 9.4709 8.17074 8.8388 7.59184C8.3627 7.15644 7.8773 6.64324 7.4171 6.18814C7.1466 5.90904 6.8588 5.61054 6.7119 5.25844C6.5326 4.82654 6.6373 4.39404 6.6801 3.93174C6.7054 3.68254 6.7186 3.41144 6.6954 3.14534C6.5827 1.42034 5.0325 0.0186404 3.3012 0.0773404C1.0718 0.0903404 -0.512698 2.30794 0.153602 4.42494C0.556502 5.81354 1.932 6.80994 3.3821 6.77934C3.8884 6.78764 4.4035 6.62624 4.8989 6.66524C5.407 6.72624 5.7214 7.01974 6.1322 7.40854C6.4757 7.74744 6.8833 8.15764 7.2282 8.50424C7.9531 9.23904 8.1569 9.58534 7.9529 10.6366C7.7245 11.8123 8.0906 13.1036 9.0038 13.8921C9.828 14.6465 10.9995 14.8751 12.0835 14.6583C13.1072 14.4502 13.4718 14.7581 14.1617 15.4437C14.5106 15.7924 14.9162 16.1982 15.2614 16.5446C15.7499 17.0405 16.1523 17.4641 16.1353 18.1435C16.1256 18.643 16.0385 19.168 16.1147 19.6724C16.2949 21.1651 17.5386 22.3893 19.0312 22.5494C19.3623 22.5906 19.6976 22.575 20.0275 22.5492C20.5171 22.5086 20.9039 22.488 21.3002 22.7232C21.648 22.9281 21.917 23.2112 22.2175 23.5072C22.5699 23.8613 22.9837 24.2711 23.3257 24.6188C23.7189 25.0329 24.0118 25.3511 24.0726 25.8647C24.1144 26.4025 23.9588 26.9729 24.0152 27.5233C24.0921 28.6527 24.7787 29.7085 25.7756 30.2252C27.4838 31.1418 29.7113 30.3833 30.4476 28.5709C31.3704 26.3669 29.759 23.9055 27.365 23.9116Z" />
<path d="M3.6518 7.93624C2.0803 7.82954 0.566397 8.86714 0.148097 10.3945C-0.245303 11.7217 0.273297 13.2508 1.3982 14.0537C1.8708 14.3821 2.4447 14.7596 2.464 15.382C2.4768 15.7171 2.2686 16.0634 2.0024 16.3024C1.8085 16.478 1.5823 16.6134 1.3738 16.7723C1.0119 17.044 0.705097 17.386 0.476897 17.7781C0.0561973 18.4889 -0.0845027 19.3931 0.0968973 20.2084C0.614497 22.6483 3.593 23.6792 5.5531 22.1748C7.3309 20.839 7.3234 18.1041 5.5369 16.7769C5.2258 16.542 4.9201 16.3735 4.7024 16.0873C4.2286 15.4999 4.4483 14.8535 5.0084 14.415C5.1558 14.297 5.3209 14.1905 5.476 14.0762C6.3431 13.4621 6.8934 12.4096 6.8861 11.331V11.3231C6.9142 9.55034 5.4263 8.00514 3.6518 7.93624Z" />
<path d="M19.4635 23.748H19.4556C18.3796 23.7408 17.3298 24.2881 16.7153 25.1518C16.5993 25.3085 16.4916 25.4755 16.3725 25.6247C15.8846 26.2481 15.1694 26.4159 14.5574 25.8652C14.3008 25.6429 14.1163 25.3024 13.8821 25.0125C13.7046 24.7914 13.4996 24.5927 13.2729 24.4225C13.0553 24.2592 12.819 24.1227 12.5676 24.0162C9.8816 22.9123 7.2111 25.3625 7.9805 28.1388C8.5528 30.2662 11.0887 31.2797 12.9668 30.1454C13.5136 29.8363 13.9149 29.3475 14.2587 28.8338C14.5109 28.4729 14.9328 28.1464 15.3744 28.162C15.935 28.1709 16.3518 28.6613 16.6402 29.1077C17.6902 30.7079 19.9655 31.106 21.4895 29.942C24.0763 27.9538 22.7592 23.7813 19.4635 23.748Z" />
<path d="M10.4636 6.80351C11.7138 7.10841 13.0984 6.63271 13.8872 5.62371C14.0594 5.41301 14.2087 5.18361 14.403 4.99351C14.6621 4.73901 15.0252 4.55361 15.3804 4.56891C16.0492 4.60301 16.4111 5.12281 16.7728 5.61751C17.3257 6.34021 18.1579 6.81991 19.0723 6.92131C20.9314 7.15031 22.6415 5.76521 22.8332 3.90861C23.0819 1.90111 21.4924 0.0587132 19.4633 0.0771132H19.4554C18.3526 0.0695132 17.2796 0.644613 16.6702 1.54491C16.5592 1.70251 16.4562 1.87081 16.342 2.02121C15.9175 2.59431 15.2666 2.83071 14.6852 2.33971C14.4042 2.11451 14.2473 1.80061 14.0219 1.47811C13.0231 0.0103132 10.9587 -0.412387 9.46071 0.532013C6.90401 2.13711 7.51151 6.09501 10.4636 6.80351Z" />
<path d="M27.9023 8.07471C26.0068 7.70691 24.0885 9.05671 23.87 10.9826C23.7787 11.6809 23.9172 12.4243 24.2514 13.0316C24.4946 13.4806 24.8409 13.8681 25.2524 14.1657C25.7034 14.4783 26.339 14.9165 26.2371 15.5089C26.1589 15.9939 25.6024 16.3562 25.2036 16.6401C23.733 17.7053 23.401 19.8835 24.4841 21.3409C25.296 22.4861 26.8307 23.005 28.1804 22.6331C30.8899 21.9221 31.607 18.391 29.4035 16.682C29.0683 16.4243 28.6657 16.2005 28.4434 15.8352L28.44 15.8297C28.1672 15.4158 28.3392 14.9778 28.6664 14.6599C28.9514 14.3705 29.3803 14.1531 29.6867 13.841C30.4534 13.1067 30.8277 12.0032 30.6783 10.9514C30.4985 9.51101 29.3276 8.31441 27.9023 8.07471Z" />
<path d="M3.4521 30.6139C5.34826 30.6139 6.8854 29.0768 6.8854 27.1806C6.8854 25.2845 5.34826 23.7473 3.4521 23.7473C1.55594 23.7473 0.0187988 25.2845 0.0187988 27.1806C0.0187988 29.0768 1.55594 30.6139 3.4521 30.6139Z" />
<path d="M27.1994 6.8666C29.0956 6.8666 30.6327 5.32946 30.6327 3.4333C30.6327 1.53714 29.0956 0 27.1994 0C25.3033 0 23.7661 1.53714 23.7661 3.4333C23.7661 5.32946 25.3033 6.8666 27.1994 6.8666Z" />
</svg>
