<svg width="150" height="150" viewBox="0 0 150 150" fill="none" xmlns="http://www.w3.org/2000/svg">
<path d="M110.163 122.942C110.258 121.531 110.348 120.119 110.45 118.708C110.578 116.922 110.007 115.343 108.795 114.084C106.107 111.293 103.365 108.551 100.596 105.84C98.8627 104.142 96.7194 103.675 94.3396 103.956C91.7414 104.263 89.1663 104.199 86.6608 103.266C81.3783 101.299 77.8127 96.2239 77.8287 90.5784C77.8323 89.3018 77.9 88.0218 78.0096 86.7496C78.2064 84.4661 77.3624 82.574 75.824 80.9868C73.4065 78.4925 70.9341 76.0512 68.4719 73.6006C66.4739 71.6119 64.0934 71.1624 61.3885 71.7674C55.1416 73.1648 48.9611 70.4752 46.0099 65.0741C44.2226 61.8029 43.9178 58.3049 44.6694 54.6887C45.1814 52.2247 44.7854 49.974 42.9805 48.1305C40.5975 45.6968 38.1926 43.2829 35.7409 40.9188C34.0496 39.2879 32.0021 38.7869 29.6705 39.1994C25.8628 39.873 22.1621 39.7171 18.7138 37.6472C13.7776 34.6839 11.2087 28.9582 12.3243 23.2511C13.4224 17.6328 17.9747 13.2445 23.5985 12.3829C32.6983 10.9887 40.5015 18.5637 39.347 27.6693C39.2708 28.2708 39.2295 28.8773 39.1363 29.476C38.7131 32.1937 39.5964 34.4446 41.527 36.3468C43.6652 38.4536 45.8071 40.5575 47.9065 42.7027C50.0461 44.8889 52.6012 45.2933 55.524 44.8834C63.8771 43.7122 70.3133 48.9926 71.4363 56.1799C71.7065 57.9094 71.582 59.7352 71.4014 61.4922C71.1468 63.9693 71.4849 66.2047 73.289 68.0364C75.8205 70.6067 78.3565 73.1732 80.933 75.698C82.9263 77.6514 85.3051 77.6917 87.9016 77.1531C92.7213 76.1534 97.1926 76.9526 100.862 80.464C104.343 83.7945 105.652 87.9211 104.958 92.6885C104.774 93.9538 104.592 95.2211 104.471 96.4934C104.342 97.8561 104.635 99.1727 105.589 100.162C108.418 103.097 111.268 106.013 114.204 108.839C115.698 110.278 117.645 110.464 119.617 110.079C122.71 109.475 125.755 109.348 128.773 110.505C134.785 112.811 138.416 119.189 137.335 125.628C136.255 132.061 130.835 136.761 124.313 136.922C117.147 137.098 111.384 132.327 110.287 125.268C110.169 124.511 110.271 123.72 110.271 122.945C110.235 122.944 110.199 122.943 110.163 122.942Z" fill="#3A3A3A"/>
<path d="M44.0921 25.9589C44.1779 19.2278 48.6366 13.615 55.2594 12.2753C60.5691 11.2012 66.2147 13.3011 69.4057 18.0254C70.0648 19.0012 70.6874 20.0213 71.474 20.8874C73.5033 23.1218 76.2318 23.0947 78.2437 20.8403C78.9803 20.0149 79.5802 19.0646 80.2171 18.1536C83.4905 13.472 89.0774 11.329 94.7903 12.5746C99.8916 13.6869 104.21 18.2424 105.189 23.5435C106.596 31.1607 102.022 38.3111 94.4423 39.92C88.8346 41.1102 84.1599 39.2329 80.5521 34.762C79.9807 34.054 79.4541 33.308 78.8554 32.6245C76.5077 29.9446 73.3439 29.8316 70.8298 32.3755C70.0521 33.1624 69.4379 34.1083 68.7107 34.9483C64.9466 39.2961 60.1759 40.9727 54.6346 39.6018C48.9818 38.2032 45.5966 34.3761 44.4248 28.6544C44.2438 27.7703 44.1996 26.8581 44.0921 25.9589Z" fill="#3A3A3A"/>
<path d="M44.0758 122.888C44.1698 114.66 51.174 108.191 59.2955 108.999C63.3038 109.398 66.5897 111.24 69.0534 114.475C69.8073 115.465 70.5002 116.522 71.371 117.399C73.4528 119.496 76.0632 119.508 78.1739 117.432C79.0064 116.613 79.6678 115.613 80.3659 114.666C83.822 109.974 89.7337 107.886 95.2408 109.43C100.871 111.008 104.75 115.785 105.34 121.635C106.152 129.679 100.236 135.864 94.0108 136.741C88.2026 137.56 83.4695 135.66 80.0271 130.803C79.5411 130.117 79.0541 129.421 78.4825 128.809C76.0961 126.254 73.1655 126.316 70.8918 128.983C69.9977 130.032 69.2761 131.23 68.3579 132.255C64.4892 136.574 59.6203 137.941 54.1472 136.37C48.834 134.846 45.5135 131.193 44.4204 125.683C44.2381 124.765 44.1873 123.82 44.0758 122.888Z" fill="#3A3A3A"/>
<path d="M26.1678 44.341C32.0671 44.033 38.9574 48.5281 40.0302 56.1869C40.7603 61.3985 38.9311 65.8045 34.7617 69.1345C34.0248 69.7231 33.2255 70.233 32.4807 70.8123C29.4275 73.1872 29.4352 76.4899 32.4985 78.871C33.1901 79.4086 33.9202 79.8964 34.6208 80.4228C39.1407 83.8187 41.118 89.472 39.7212 94.9894C38.3749 100.307 33.8653 104.368 28.3744 105.208C20.7196 106.377 13.4923 101.308 12.3534 93.7855C11.5172 88.2626 13.3861 83.711 17.8649 80.2804C18.9304 79.4642 20.0731 78.6911 20.9458 77.6931C22.6866 75.7024 22.5507 73.5328 20.6748 71.6498C19.8955 70.8674 19.0006 70.1844 18.0944 69.547C13.4982 66.314 11.1836 60.4515 12.4503 55.1559C13.8097 49.4728 18.3737 45.2443 24.0468 44.443C24.7447 44.3444 25.4604 44.3719 26.1678 44.341Z" fill="#3A3A3A"/>
<path d="M109.502 91.3429C109.649 86.2202 111.542 82.37 115.494 79.5614C116.505 78.8436 117.498 78.0525 118.324 77.1372C119.731 75.5787 119.713 73.862 118.287 72.3299C117.446 71.4259 116.446 70.6512 115.445 69.9167C110.858 66.5492 108.975 61.9854 109.646 56.4235C110.317 50.8656 114.867 46.1995 120.511 44.9973C127.721 43.4616 134.723 47.499 136.927 54.4634C138.701 60.0661 136.613 66.2156 131.738 69.7984C130.843 70.4562 129.921 71.1009 129.129 71.8715C127.236 73.7118 127.222 75.7498 129.099 77.6167C129.881 78.3947 130.813 79.0285 131.706 79.6876C139.024 85.0859 139.555 95.6998 132.66 101.516C124.356 108.519 111.762 103.894 109.821 93.818C109.643 92.8971 109.579 91.9545 109.502 91.3429Z" fill="#3A3A3A"/>
<path d="M109.925 25.9138C109.943 18.2331 116.099 12.1121 123.783 12.1334C131.466 12.1547 137.565 18.3046 137.539 26.0049C137.513 33.6763 131.332 39.7829 123.642 39.7352C116.01 39.6878 109.908 33.5392 109.925 25.9138Z" fill="#3A3A3A"/>
<path d="M25.7708 136.939C18.0952 136.914 11.9825 130.756 12 123.067C12.0174 115.426 18.2278 109.295 25.9085 109.336C33.5164 109.376 39.6688 115.561 39.6544 123.154C39.6398 130.793 33.4246 136.963 25.7708 136.939Z" fill="#3A3A3A"/>
</svg>
